<?xml version="1.0" encoding="utf-8"?>
<svg version="1.1" id="Layer_1" x="0px" y="0px" viewBox="0 0 512 512" style="enable-background:new 0 0 512 512;" xmlns="http://www.w3.org/2000/svg">
  <circle style="fill: rgb(76, 175, 80);" cx="256" cy="256" r="256"/>
  <path style="fill: rgb(76, 175, 80);" d="M504.601,317.269L330.128,142.796l-72.692-11.205l-80.162,80.162l72.252,165.348l-114.067,26.293 l107.872,108.292c4.198,0.205,8.42,0.314,12.667,0.314C376.265,512,477.141,429.063,504.601,317.269z"/>
  <ellipse style="fill:#90DFAA;" cx="256" cy="398.222" rx="123.259" ry="24.652"/>
  <path style="fill:#6FC186;" d="M256,373.57c-0.193,0-0.381,0.003-0.574,0.003v49.299c0.193,0,0.381,0.003,0.574,0.003 c68.074,0,123.259-11.036,123.259-24.652C379.259,384.608,324.074,373.57,256,373.57z"/>
  <path style="fill:#FFD15D;" d="M256,108.606c-54.269,0-98.263,43.994-98.263,98.263c0,83.375,98.263,196.525,98.263,196.525 s98.263-107.941,98.263-196.525C354.263,152.6,310.269,108.606,256,108.606z M256,256c-27.134,0-49.131-21.997-49.131-49.131 s21.997-49.131,49.131-49.131s49.131,21.997,49.131,49.131S283.134,256,256,256z"/>
  <path style="fill:#F9B54C;" d="M354.263,206.869c0-54.269-43.994-98.263-98.263-98.263c-0.193,0-0.381,0.014-0.574,0.014v49.131 c0.191-0.002,0.381-0.014,0.574-0.014c27.134,0,49.131,21.997,49.131,49.131S283.134,256,256,256c-0.193,0-0.383-0.012-0.574-0.014 v146.739c0.371,0.434,0.574,0.669,0.574,0.669S354.263,295.453,354.263,206.869z"/>
  <g/>
  <g/>
  <g/>
  <g/>
  <g/>
  <g/>
  <g/>
  <g/>
  <g/>
  <g/>
  <g/>
  <g/>
  <g/>
  <g/>
  <g/>
</svg>