<?xml version="1.0" encoding="utf-8"?>
<svg version="1.1" id="Capa_1" x="0px" y="0px" viewBox="0 0 53 53" style="enable-background:new 0 0 53 53;" xmlns="http://www.w3.org/2000/svg">
  <path style="fill: rgb(68, 74, 84);" d="M 18.613 41.552 L 10.706 45.865 C 10.242 46.118 9.825 46.429 9.437 46.768 C 14.047 50.655 19.998 53 26.5 53 C 32.954 53 38.867 50.69 43.464 46.856 C 43.04 46.498 42.58 46.176 42.07 45.922 L 33.603 41.689 C 32.509 41.142 31.818 40.024 31.818 38.801 L 31.818 35.479 C 32.056 35.208 32.328 34.86 32.619 34.449 C 33.773 32.819 34.646 31.026 35.251 29.145 C 36.337 28.81 37.137 27.807 37.137 26.615 L 37.137 23.069 C 37.137 22.289 36.79 21.592 36.251 21.104 L 36.251 15.978 C 36.251 15.978 36.616 13.213 34.712 10.939 C 33.382 9.35 30.944 8.001 26.501 8.001 C 15.698 8.001 16.751 15.978 16.751 15.978 L 16.751 21.104 C 16.211 21.592 15.865 22.289 15.865 23.069 L 15.865 26.615 C 15.865 27.549 16.356 28.371 17.091 28.846 C 17.977 32.703 20.297 35.479 20.297 35.479 L 20.297 38.719 C 20.296 39.899 19.65 40.986 18.613 41.552 Z"/>
  <g>
    <path style="fill: rgb(76, 175, 80);" d="M26.953,0.004C12.32-0.246,0.254,11.414,0.004,26.047C-0.138,34.344,3.56,41.801,9.448,46.76 c0.385-0.336,0.798-0.644,1.257-0.894l7.907-4.313c1.037-0.566,1.683-1.653,1.683-2.835v-3.24c0,0-2.321-2.776-3.206-6.633 c-0.734-0.475-1.226-1.296-1.226-2.231v-3.546c0-0.78,0.347-1.477,0.886-1.965v-5.126c0,0-1.053-7.977,9.75-7.977 s9.75,7.977,9.75,7.977v5.126c0.54,0.488,0.886,1.185,0.886,1.965v3.546c0,1.192-0.8,2.195-1.886,2.53 c-0.605,1.881-1.478,3.674-2.632,5.304c-0.291,0.411-0.563,0.759-0.801,1.03V38.8c0,1.223,0.691,2.342,1.785,2.888l8.467,4.233 c0.508,0.254,0.967,0.575,1.39,0.932c5.71-4.762,9.399-11.882,9.536-19.9C53.246,12.32,41.587,0.254,26.953,0.004z"/>
  </g>
  <g/>
  <g/>
  <g/>
  <g/>
  <g/>
  <g/>
  <g/>
  <g/>
  <g/>
  <g/>
  <g/>
  <g/>
  <g/>
  <g/>
  <g/>
</svg>